<svg xmlns="http://www.w3.org/2000/svg" viewBox="0 0 760 440" font-family="'PingFang SC','Microsoft YaHei','Helvetica Neue',Arial,sans-serif" role="img"><rect width="760" height="440" fill="#1a1a2e" rx="14"/><text x="380.0" y="34" fill="#e6edf3" font-size="20" font-weight="700" text-anchor="middle">Outs → 胜率曲线  (NL10 基础概念)</text><text x="380.0" y="54" fill="#8b9bb4" font-size="12" text-anchor="middle">翻牌后听牌：成牌概率随 outs 变化 · 规则 2 / 4 的精确版</text><line x1="58" y1="388.0" x2="736" y2="388.0" stroke="#2a3a5e" stroke-width="1"/><text x="50" y="392.0" fill="#8b9bb4" font-size="11" text-anchor="end">0%</text><line x1="58" y1="323.2" x2="736" y2="323.2" stroke="#2a3a5e" stroke-width="1"/><text x="50" y="327.2" fill="#8b9bb4" font-size="11" text-anchor="end">20%</text><line x1="58" y1="258.4" x2="736" y2="258.4" stroke="#2a3a5e" stroke-width="1"/><text x="50" y="262.4" fill="#8b9bb4" font-size="11" text-anchor="end">40%</text><line x1="58" y1="193.6" x2="736" y2="193.6" stroke="#2a3a5e" stroke-width="1"/><text x="50" y="197.6" fill="#8b9bb4" font-size="11" text-anchor="end">60%</text><line x1="58" y1="128.8" x2="736" y2="128.8" stroke="#2a3a5e" stroke-width="1"/><text x="50" y="132.8" fill="#8b9bb4" font-size="11" text-anchor="end">80%</text><line x1="58" y1="64.0" x2="736" y2="64.0" stroke="#2a3a5e" stroke-width="1"/><text x="50" y="68.0" fill="#8b9bb4" font-size="11" text-anchor="end">100%</text><line x1="58.0" y1="64" x2="58.0" y2="388" stroke="#2a3a5e" stroke-width="1" opacity="0.5"/><text x="58.0" y="406" fill="#8b9bb4" font-size="11" text-anchor="middle">1</text><line x1="125.8" y1="64" x2="125.8" y2="388" stroke="#2a3a5e" stroke-width="1" opacity="0.5"/><text x="125.8" y="406" fill="#8b9bb4" font-size="11" text-anchor="middle">3</text><line x1="193.6" y1="64" x2="193.6" y2="388" stroke="#2a3a5e" stroke-width="1" opacity="0.5"/><text x="193.6" y="406" fill="#8b9bb4" font-size="11" text-anchor="middle">5</text><line x1="261.4" y1="64" x2="261.4" y2="388" stroke="#2a3a5e" stroke-width="1" opacity="0.5"/><text x="261.4" y="406" fill="#8b9bb4" font-size="11" text-anchor="middle">7</text><line x1="329.2" y1="64" x2="329.2" y2="388" stroke="#2a3a5e" stroke-width="1" opacity="0.5"/><text x="329.2" y="406" fill="#8b9bb4" font-size="11" text-anchor="middle">9</text><line x1="397.0" y1="64" x2="397.0" y2="388" stroke="#2a3a5e" stroke-width="1" opacity="0.5"/><text x="397.0" y="406" fill="#8b9bb4" font-size="11" text-anchor="middle">11</text><line x1="464.8" y1="64" x2="464.8" y2="388" stroke="#2a3a5e" stroke-width="1" opacity="0.5"/><text x="464.8" y="406" fill="#8b9bb4" font-size="11" text-anchor="middle">13</text><line x1="532.6" y1="64" x2="532.6" y2="388" stroke="#2a3a5e" stroke-width="1" opacity="0.5"/><text x="532.6" y="406" fill="#8b9bb4" font-size="11" text-anchor="middle">15</text><line x1="600.4" y1="64" x2="600.4" y2="388" stroke="#2a3a5e" stroke-width="1" opacity="0.5"/><text x="600.4" y="406" fill="#8b9bb4" font-size="11" text-anchor="middle">17</text><line x1="668.2" y1="64" x2="668.2" y2="388" stroke="#2a3a5e" stroke-width="1" opacity="0.5"/><text x="668.2" y="406" fill="#8b9bb4" font-size="11" text-anchor="middle">19</text><line x1="736.0" y1="64" x2="736.0" y2="388" stroke="#2a3a5e" stroke-width="1" opacity="0.5"/><text x="736.0" y="406" fill="#8b9bb4" font-size="11" text-anchor="middle">21</text><text x="397.0" y="430" fill="#8b9bb4" font-size="12" text-anchor="middle">Outs（补牌数）</text><polyline points="58.0,381.1 91.9,374.2 125.8,367.3 159.7,360.4 193.6,353.5 227.5,346.6 261.4,339.7 295.3,332.9 329.2,326.0 363.1,319.1 397.0,312.2 430.9,305.3 464.8,298.4 498.7,291.5 532.6,284.6 566.5,277.7 600.4,270.8 634.3,263.9 668.2,257.0 702.1,250.1 736.0,243.2" fill="none" stroke="#5b8def" stroke-width="3"/><polyline points="58.0,374.2 91.9,360.7 125.8,347.5 159.7,334.6 193.6,322.1 227.5,309.8 261.4,297.8 295.3,286.1 329.2,274.7 363.1,263.6 397.0,252.8 430.9,242.3 464.8,232.1 498.7,222.3 532.6,212.7 566.5,203.4 600.4,194.4 634.3,185.7 668.2,177.3 702.1,169.2 736.0,161.4" fill="none" stroke="#4ecca3" stroke-width="3"/><circle cx="58.0" cy="381.1" r="2.5" fill="#5b8def"/><circle cx="91.9" cy="374.2" r="2.5" fill="#5b8def"/><circle cx="125.8" cy="367.3" r="2.5" fill="#5b8def"/><circle cx="159.7" cy="360.4" r="2.5" fill="#5b8def"/><circle cx="193.6" cy="353.5" r="2.5" fill="#5b8def"/><circle cx="227.5" cy="346.6" r="2.5" fill="#5b8def"/><circle cx="261.4" cy="339.7" r="2.5" fill="#5b8def"/><circle cx="295.3" cy="332.9" r="2.5" fill="#5b8def"/><circle cx="329.2" cy="326.0" r="2.5" fill="#5b8def"/><circle cx="363.1" cy="319.1" r="2.5" fill="#5b8def"/><circle cx="397.0" cy="312.2" r="2.5" fill="#5b8def"/><circle cx="430.9" cy="305.3" r="2.5" fill="#5b8def"/><circle cx="464.8" cy="298.4" r="2.5" fill="#5b8def"/><circle cx="498.7" cy="291.5" r="2.5" fill="#5b8def"/><circle cx="532.6" cy="284.6" r="2.5" fill="#5b8def"/><circle cx="566.5" cy="277.7" r="2.5" fill="#5b8def"/><circle cx="600.4" cy="270.8" r="2.5" fill="#5b8def"/><circle cx="634.3" cy="263.9" r="2.5" fill="#5b8def"/><circle cx="668.2" cy="257.0" r="2.5" fill="#5b8def"/><circle cx="702.1" cy="250.1" r="2.5" fill="#5b8def"/><circle cx="736.0" cy="243.2" r="2.5" fill="#5b8def"/><circle cx="58.0" cy="374.2" r="2.5" fill="#4ecca3"/><circle cx="91.9" cy="360.7" r="2.5" fill="#4ecca3"/><circle cx="125.8" cy="347.5" r="2.5" fill="#4ecca3"/><circle cx="159.7" cy="334.6" r="2.5" fill="#4ecca3"/><circle cx="193.6" cy="322.1" r="2.5" fill="#4ecca3"/><circle cx="227.5" cy="309.8" r="2.5" fill="#4ecca3"/><circle cx="261.4" cy="297.8" r="2.5" fill="#4ecca3"/><circle cx="295.3" cy="286.1" r="2.5" fill="#4ecca3"/><circle cx="329.2" cy="274.7" r="2.5" fill="#4ecca3"/><circle cx="363.1" cy="263.6" r="2.5" fill="#4ecca3"/><circle cx="397.0" cy="252.8" r="2.5" fill="#4ecca3"/><circle cx="430.9" cy="242.3" r="2.5" fill="#4ecca3"/><circle cx="464.8" cy="232.1" r="2.5" fill="#4ecca3"/><circle cx="498.7" cy="222.3" r="2.5" fill="#4ecca3"/><circle cx="532.6" cy="212.7" r="2.5" fill="#4ecca3"/><circle cx="566.5" cy="203.4" r="2.5" fill="#4ecca3"/><circle cx="600.4" cy="194.4" r="2.5" fill="#4ecca3"/><circle cx="634.3" cy="185.7" r="2.5" fill="#4ecca3"/><circle cx="668.2" cy="177.3" r="2.5" fill="#4ecca3"/><circle cx="702.1" cy="169.2" r="2.5" fill="#4ecca3"/><circle cx="736.0" cy="161.4" r="2.5" fill="#4ecca3"/><line x1="329.2" y1="64" x2="329.2" y2="388" stroke="#f0a500" stroke-width="1.2" stroke-dasharray="4 3"/><text x="335.2" y="320.0" fill="#5b8def" font-size="11">9 outs → 转牌 19%</text><text x="335.2" y="268.7" fill="#4ecca3" font-size="11">河牌 35%</text><rect x="560" y="62" width="14" height="10" fill="#5b8def"/><text x="580" y="72" fill="#e6edf3" font-size="12">转牌（1 张）</text><rect x="560" y="80" width="14" height="10" fill="#4ecca3"/><text x="580" y="90" fill="#e6edf3" font-size="12">河牌（2 张）</text></svg>