<svg xmlns="http://www.w3.org/2000/svg" viewBox="0 0 720 420" font-family="'PingFang SC','Microsoft YaHei','Helvetica Neue',Arial,sans-serif" role="img"><rect width="720" height="420" fill="#1a1a2e" rx="14"/><text x="360.0" y="34" fill="#e6edf3" font-size="20" font-weight="700" text-anchor="middle">位置赢率示意  (bb/100)</text><text x="360.0" y="54" fill="#8b9bb4" font-size="12" text-anchor="middle">数值为示意区间 · 真实值来自你的 hand-analyzer 统计</text><line x1="415.0" y1="64" x2="415.0" y2="374" stroke="#8b9bb4" stroke-width="1.5"/><text x="419.0" y="58" fill="#8b9bb4" font-size="10">0</text><rect x="318.8" y="76.8" width="96.2" height="26" rx="4" fill="#e94560" opacity="0.9"/><text x="128" y="94.8" fill="#e6edf3" font-size="13" text-anchor="end">UTG</text><text x="421.0" y="94.8" fill="#e6edf3" font-size="12" text-anchor="end">-3.5</text><rect x="415.0" y="128.5" width="13.8" height="26" rx="4" fill="#f0a500" opacity="0.9"/><text x="128" y="146.5" fill="#e6edf3" font-size="13" text-anchor="end">HJ</text><text x="421.0" y="146.5" fill="#e6edf3" font-size="12" text-anchor="start">+0.5</text><rect x="415.0" y="180.2" width="110.0" height="26" rx="4" fill="#4ecca3" opacity="0.9"/><text x="128" y="198.2" fill="#e6edf3" font-size="13" text-anchor="end">CO</text><text x="421.0" y="198.2" fill="#e6edf3" font-size="12" text-anchor="start">+4.0</text><rect x="415.0" y="231.8" width="233.8" height="26" rx="4" fill="#4ecca3" opacity="0.9"/><text x="128" y="249.8" fill="#e6edf3" font-size="13" text-anchor="end">BTN</text><text x="421.0" y="249.8" fill="#e6edf3" font-size="12" text-anchor="start">+8.5</text><rect x="112.5" y="283.5" width="302.5" height="26" rx="4" fill="#e94560" opacity="0.9"/><text x="128" y="301.5" fill="#e6edf3" font-size="13" text-anchor="end">SB</text><text x="421.0" y="301.5" fill="#e6edf3" font-size="12" text-anchor="end">-11.0</text><rect x="195.0" y="335.2" width="220.0" height="26" rx="4" fill="#e94560" opacity="0.9"/><text x="128" y="353.2" fill="#e6edf3" font-size="13" text-anchor="end">BB</text><text x="421.0" y="353.2" fill="#e6edf3" font-size="12" text-anchor="end">-8.0</text><text x="415.0" y="408" fill="#8b9bb4" font-size="11" text-anchor="middle">越靠后位（BTN）赢率越高 · 盲位（SB/BB）通常为负</text></svg>